<svg width="65" height="66" viewBox="0 0 65 66" fill="none" xmlns="http://www.w3.org/2000/svg">
<g clip-path="url(#clip0_1407_28)">
<path d="M29.1336 42.623H26.8906C26.8912 43.2178 27.1276 43.788 27.5482 44.2085C27.9687 44.629 28.5389 44.8655 29.1336 44.8661V42.623Z" fill="#D333E5"/>
<path d="M31.3789 42.623H33.6219V44.8661H31.3789V42.623Z" fill="#D333E5"/>
<path d="M22.9733 38.7396C22.7733 38.6056 22.5952 38.4526 22.4062 38.3086V43.7436C22.4078 45.2304 22.9992 46.6559 24.0505 47.7073C25.1019 48.7586 26.5274 49.35 28.0143 49.3516H36.9872C38.4741 49.35 39.8996 48.7586 40.951 47.7073C42.0023 46.6559 42.5937 45.2304 42.5952 43.7436V38.3086C42.4052 38.4526 42.2273 38.6086 42.0283 38.7396L40.3523 39.8566V42.6216C40.3512 43.8113 39.8781 44.952 39.0369 45.7932C38.1956 46.6345 37.055 47.1075 35.8653 47.1086H29.1353C27.9456 47.1075 26.8049 46.6345 25.9636 45.7932C25.1224 44.952 24.6493 43.8113 24.6483 42.6216V39.8566L22.9733 38.7396Z" fill="#D333E5"/>
<path d="M47.0813 29.2916C47.0748 30.0003 47.0014 30.7067 46.8623 31.4016H64.9983C64.824 26.3905 63.4928 21.4875 61.1089 17.0763C58.7249 12.665 55.3528 8.8651 51.2563 5.97363L42.4062 20.1336C43.8526 21.1832 45.0302 22.56 45.8427 24.1516C46.6552 25.7433 47.0796 27.5046 47.0813 29.2916V29.2916Z" fill="#D333E5"/>
<path d="M35.8633 42.623V44.8661C36.458 44.8655 37.0282 44.629 37.4487 44.2085C37.8693 43.788 38.1058 43.2178 38.1063 42.623H35.8633Z" fill="#D333E5"/>
<path d="M17.918 29.2916C17.9198 27.5046 18.3442 25.7433 19.1565 24.1515C19.9688 22.5597 21.146 21.1826 22.592 20.1326L13.742 5.97461C9.64528 8.8666 6.27309 12.6671 3.88914 17.0788C1.5052 21.4906 0.174118 26.394 0 31.4056H18.136C17.9977 30.7106 17.9247 30.0042 17.918 29.2956V29.2916Z" fill="#D333E5"/>
<path d="M20.1601 43.7453V36.0533C19.609 35.3121 19.151 34.5061 18.7961 33.6533H-0.00390625C0.170441 38.6643 1.50164 43.5671 3.8856 47.9782C6.26955 52.3892 9.64163 56.189 13.7381 59.0803L21.0531 47.3803C20.4633 46.2615 20.1544 45.0161 20.1531 43.7513L20.1601 43.7453Z" fill="#D333E5"/>
<path d="M44.8375 36.0515V43.7435C44.8363 45.0086 44.5274 46.2544 43.9375 47.3735L51.2525 59.0735C55.349 56.1818 58.7212 52.3816 61.1053 47.9702C63.4894 43.5589 64.8208 38.6559 64.9955 33.6445H46.1955C45.8406 34.4973 45.3826 35.3033 44.8315 36.0446L44.8375 36.0515Z" fill="#D333E5"/>
<path d="M29.2693 17.9469H35.7323C37.371 17.9485 38.9896 18.3075 40.4753 18.9989L49.3893 4.73792C44.3012 1.63913 38.4587 0 32.5013 0C26.5439 0 20.7013 1.63913 15.6133 4.73792L24.5273 18.9989C26.0126 18.3074 27.6309 17.9484 29.2693 17.9469V17.9469Z" fill="#D333E5"/>
<path d="M36.9873 51.5964H28.0143C25.9436 51.597 23.9569 50.7772 22.4893 49.3164L15.6133 60.3164C20.7011 63.4152 26.5435 65.0544 32.5008 65.0544C38.458 65.0544 44.3004 63.4152 49.3883 60.3164L42.5113 49.3164C41.0444 50.7778 39.0578 51.5977 36.9873 51.5964V51.5964Z" fill="#D333E5"/>
<path d="M35.7303 20.1904H29.2673C27.3126 20.1904 25.4098 20.8193 23.8401 21.9841C22.2704 23.1489 21.1172 24.7879 20.5508 26.6588C19.9845 28.5296 20.0351 30.533 20.6952 32.3728C21.3552 34.2127 22.5898 35.7913 24.2163 36.8754L26.8913 38.6594V40.3814H38.1083V38.6594L40.7833 36.8754C42.4099 35.7913 43.6444 34.2126 44.3045 32.3726C44.9646 30.5327 45.0151 28.5292 44.4486 26.6583C43.8822 24.7874 42.7287 23.1484 41.1589 21.9837C39.589 20.8189 37.686 20.1902 35.7313 20.1904H35.7303ZM23.5303 29.1634C23.5303 28.4979 23.7277 27.8473 24.0974 27.2939C24.4672 26.7406 24.9927 26.3093 25.6076 26.0546C26.2224 25.7999 26.899 25.7332 27.5518 25.8631C28.2045 25.9929 28.8041 26.3134 29.2747 26.784C29.7453 27.2546 30.0658 27.8542 30.1956 28.507C30.3255 29.1597 30.2588 29.8363 30.0041 30.4512C29.7495 31.066 29.3182 31.5916 28.7648 31.9613C28.2114 32.3311 27.5608 32.5284 26.8953 32.5284C26.4531 32.529 26.015 32.4423 25.6063 32.2734C25.1976 32.1046 24.8262 31.8568 24.5133 31.5443C24.2004 31.2317 23.9522 30.8606 23.7828 30.4521C23.6135 30.0436 23.5263 29.6057 23.5263 29.1634H23.5303ZM34.8683 37.7524C34.4816 38.0046 34.03 38.139 33.5683 38.1394C33.2274 38.1388 32.8905 38.0666 32.5793 37.9274C32.5574 37.9172 32.5335 37.9118 32.5093 37.9118C32.4851 37.9118 32.4612 37.9172 32.4393 37.9274C32.0722 38.0941 31.6691 38.1656 31.2671 38.1353C30.8652 38.1051 30.4773 37.9741 30.1393 37.7544C29.6768 37.4594 29.3438 36.9996 29.2077 36.4682C29.0716 35.9367 29.1426 35.3735 29.4063 34.8924L30.4063 33.1044L32.3643 34.1984L31.4193 35.8984C31.4533 35.9024 31.4877 35.8976 31.5193 35.8844C31.83 35.7449 32.1667 35.6727 32.5073 35.6727C32.8479 35.6727 33.1846 35.7449 33.4953 35.8844C33.5262 35.9 33.5616 35.9042 33.5953 35.8964L32.6503 34.1964L34.6083 33.1024L35.6083 34.8884C35.7819 35.2008 35.8734 35.5521 35.8743 35.9094C35.8771 36.276 35.7868 36.6373 35.6119 36.9594C35.437 37.2816 35.1832 37.5541 34.8743 37.7514L34.8683 37.7524ZM38.1123 32.5284C37.4468 32.5284 36.7962 32.3311 36.2428 31.9613C35.6894 31.5916 35.2581 31.066 35.0034 30.4512C34.7488 29.8363 34.6821 29.1597 34.8119 28.507C34.9418 27.8542 35.2623 27.2546 35.7329 26.784C36.2035 26.3134 36.8031 25.9929 37.4558 25.8631C38.1085 25.7332 38.7851 25.7999 39.4 26.0546C40.0149 26.3093 40.5404 26.7406 40.9102 27.2939C41.2799 27.8473 41.4773 28.4979 41.4773 29.1634C41.4773 29.6057 41.3901 30.0436 41.2208 30.4521C41.0514 30.8606 40.8032 31.2317 40.4903 31.5443C40.1774 31.8568 39.806 32.1046 39.3972 32.2734C38.9885 32.4423 38.5505 32.529 38.1083 32.5284H38.1123Z" fill="#D333E5"/>
</g>
<defs>
<clipPath id="clip0_1407_28">
<rect width="65" height="65.056" fill="white"/>
</clipPath>
</defs>
</svg>
